<svg xmlns="http://www.w3.org/2000/svg" viewBox="0 0 64 64" role="img" aria-label="ExamAI logo">
  <defs>
    <linearGradient id="bg" x1="0" y1="0" x2="1" y2="1">
      <stop offset="0%" stop-color="#5A6CF8"/>
      <stop offset="100%" stop-color="#4F46E5"/>
    </linearGradient>
  </defs>
  <rect x="2" y="2" width="60" height="60" rx="16" fill="url(#bg)"/>
  <path d="M22 19c-5 0-9 4-9 9v8c0 5 4 9 9 9h2v-5h-2c-2 0-4-2-4-4v-2h6v-5h-6v-1c0-2 2-4 4-4h2v-5h-2zm20 0h-2v5h2c2 0 4 2 4 4v1h-6v5h6v2c0 2-2 4-4 4h-2v5h2c5 0 9-4 9-9v-8c0-5-4-9-9-9zm-17 9h14v5H25v-5zm0 7h14v5H25v-5z" fill="#FFFFFF"/>
</svg>
